<svg width="226" height="215" viewBox="0 0 226 215" fill="none" xmlns="http://www.w3.org/2000/svg">
<path d="M64.0251 131.724C62.8217 123.731 57.507 77.2442 55 55C73.3008 55 117.198 56.395 146.379 61.9749C182.855 68.9497 161.233 73.2855 165.181 76.3016C169.13 79.3178 164.241 93.6445 165.181 119.847C166.121 146.05 149.951 150.575 146.379 152.083C143.521 153.289 130.146 157.864 123.816 160C104.387 153.905 65.2284 139.716 64.0251 131.724Z" fill="white"/>
<path d="M206.792 133.603C220.953 119.435 206.792 87.0251 206.792 61.6998C206.792 36.3744 197.675 52.5792 178.202 33.0981C158.73 13.617 161.208 29.2904 140.94 9.01245C120.671 -11.2656 104.473 9.01245 75.1762 9.01245C45.7907 9.01245 22.5123 61.6998 22.5123 61.6998C-35.1968 61.6998 39.2406 122.977 14.4578 147.771C-10.3252 172.565 40.7455 174.07 69.0691 202.406C97.3922 230.742 128.814 202.406 165.192 202.406C201.658 202.406 157.137 160.876 206.703 160.876C256.446 160.965 192.63 147.771 206.792 133.603ZM160.323 134.488C135.364 134.488 157.757 155.386 139.435 155.386C121.113 155.386 105.27 169.643 91.0195 155.386C76.7694 141.129 51.0127 140.333 63.4926 127.847C75.9728 115.361 38.5328 84.4572 67.5642 84.4572C67.5642 84.4572 79.2478 57.8924 94.1176 57.8924C108.899 57.8924 117.042 47.7089 127.22 57.8924C137.399 68.0754 136.16 60.1944 145.985 70.0236C155.809 79.8527 160.412 71.7059 160.412 84.4572C160.412 97.2086 167.581 113.502 160.412 120.674C153.154 127.847 185.283 134.488 160.323 134.488Z" fill="#D36412"/>
<path d="M111.542 36C97.59 36 83.9515 40.1372 72.3509 47.8884C60.7504 55.6397 51.7089 66.6568 46.3697 79.5467C41.0306 92.4365 39.6336 106.62 42.3555 120.304C45.0773 133.988 51.7958 146.557 61.6613 156.423C71.5267 166.288 84.0961 173.006 97.7799 175.728C111.464 178.45 125.647 177.053 138.537 171.714C151.427 166.375 162.444 157.333 170.195 145.733C177.947 134.132 182.084 120.494 182.084 106.542C182.084 87.833 174.652 69.8904 161.423 56.6612C148.193 43.4321 130.251 36 111.542 36V36ZM143.613 88.73L100.784 131.559C100.55 131.795 100.271 131.983 99.9644 132.111C99.6574 132.238 99.3281 132.304 98.9955 132.304C98.6629 132.304 98.3337 132.238 98.0266 132.111C97.7196 131.983 97.441 131.795 97.2068 131.559L79.395 113.747C79.1588 113.513 78.9714 113.234 78.8435 112.927C78.7156 112.62 78.6498 112.291 78.6498 111.958C78.6498 111.626 78.7156 111.297 78.8435 110.99C78.9714 110.683 79.1588 110.404 79.395 110.17L83.048 106.542C83.5201 106.073 84.1586 105.809 84.8242 105.809C85.4898 105.809 86.1283 106.073 86.6003 106.542L98.3657 118.307C98.5541 118.492 98.8073 118.595 99.0711 118.595C99.3349 118.595 99.5882 118.492 99.7765 118.307L136.484 81.6003C136.956 81.131 137.594 80.8677 138.26 80.8677C138.925 80.8677 139.564 81.131 140.036 81.6003L143.613 85.1526C143.849 85.3868 144.037 85.6654 144.165 85.9724C144.293 86.2794 144.358 86.6087 144.358 86.9413C144.358 87.2739 144.293 87.6032 144.165 87.9102C144.037 88.2172 143.849 88.4958 143.613 88.73V88.73Z" fill="#D36412"/>
</svg>
