<svg width="173" height="130" viewBox="0 0 173 130" fill="none" xmlns="http://www.w3.org/2000/svg">
<path fill-rule="evenodd" clip-rule="evenodd" d="M23.1678 18.0756C27.098 19.399 30.8324 19.567 33.4772 18.598C32.8001 15.8596 30.5728 12.852 27.2799 10.3279C28.6009 6.39067 28.7686 2.64956 27.8014 0C25.0679 0.678293 22.0657 2.90961 19.5461 6.20842C15.6159 4.88505 11.8815 4.717 9.23673 5.68598C9.91381 8.42442 12.1411 11.432 15.434 13.9561C14.113 17.8933 13.9453 21.6344 14.9125 24.284C17.646 23.6057 20.6482 21.3744 23.1678 18.0756ZM11.9933 70.4877C14.8452 70.7668 17.3861 70.2983 19.0167 69.2339C18.1358 67.4953 16.1692 65.8169 13.56 64.63C13.8386 61.7729 13.371 59.2276 12.3085 57.594C10.573 58.4765 8.8976 60.4466 7.71285 63.0604C4.8609 62.7814 2.32009 63.2499 0.689453 64.3143C1.57036 66.0529 3.53697 67.7313 6.1461 68.9181C5.86756 71.7752 6.33517 74.3206 7.39769 75.9542C9.13317 75.0717 10.8085 73.1015 11.9933 70.4877ZM167.656 122.795C165.74 122.283 163.654 120.676 161.921 118.323C159.139 119.206 156.508 119.278 154.658 118.564C155.168 116.645 156.773 114.555 159.122 112.819C158.24 110.031 158.168 107.396 158.881 105.543C160.797 106.054 162.883 107.661 164.616 110.014C167.399 109.131 170.029 109.059 171.879 109.774C171.369 111.693 169.764 113.782 167.415 115.518C168.297 118.306 168.369 120.941 167.656 122.795Z" fill="#EB886A"/>
<path fill-rule="evenodd" clip-rule="evenodd" d="M52.3999 35.8076V128.353L62.046 128.353V46.2143H117.696V128.353L126.6 128.353V35.8076C126.6 31.7023 123.278 28.3743 119.18 28.3743H59.8199C55.7219 28.3743 52.3999 31.7023 52.3999 35.8076Z" fill="#FCF7EE"/>
<path d="M52.3999 128.353H50.8999V129.853H52.3999L52.3999 128.353ZM62.046 128.353L62.046 129.853H63.546V128.353H62.046ZM62.046 46.2143V44.7143H60.546V46.2143H62.046ZM117.696 46.2143H119.196V44.7143H117.696V46.2143ZM117.696 128.353H116.196V129.853H117.696V128.353ZM126.6 128.353V129.853H128.1V128.353H126.6ZM53.8999 128.353V35.8076H50.8999V128.353H53.8999ZM62.046 126.853L52.3999 126.853L52.3999 129.853L62.046 129.853L62.046 126.853ZM63.546 128.353V46.2143H60.546V128.353H63.546ZM62.046 47.7143H117.696V44.7143H62.046V47.7143ZM116.196 46.2143V128.353H119.196V46.2143H116.196ZM126.6 126.853L117.696 126.853V129.853L126.6 129.853V126.853ZM125.1 35.8076V128.353H128.1V35.8076H125.1ZM119.18 29.8743C122.447 29.8743 125.1 32.5282 125.1 35.8076H128.1C128.1 30.8764 124.109 26.8743 119.18 26.8743V29.8743ZM59.8199 29.8743H119.18V26.8743H59.8199V29.8743ZM53.8999 35.8076C53.8999 32.5282 56.5529 29.8743 59.8199 29.8743V26.8743C54.891 26.8743 50.8999 30.8764 50.8999 35.8076H53.8999Z" fill="#C6BEA3"/>
<path d="M96.1778 36.5509H82.8218" stroke="#C6BEA3" stroke-width="3" stroke-linecap="round" stroke-dasharray="1 8 10"/>
<path d="M105.082 45.667C105.082 27.0925 119.79 12.0208 137.951 12.0208C156.112 12.0208 170.82 27.0925 170.82 45.667C170.82 60.9299 160.466 73.0157 144.579 78.6162L120.686 86.7698C116.742 88.1156 114.073 85.496 115.356 81.526L118.242 72.5961C110.034 66.2955 105.082 56.4055 105.082 45.667Z" fill="white" stroke="#C6BEA3" stroke-width="3" stroke-linecap="round"/>
<path d="M134.979 46.7607L143.369 55.4795H126.589L134.979 46.7607Z" fill="#FCF7EE"/>
<path d="M137.562 46.7607L144.833 54.5107H130.291L137.562 46.7607Z" fill="#FCF7EE"/>
<circle cx="135.625" cy="37.7192" r="5.16667" fill="#FCF7EE"/>
<path d="M133.688 46.7607L139.84 53.542H127.535L133.688 46.7607Z" fill="#FCF7EE"/>
<path d="M147.25 40.3025V44.1775V40.3025ZM147.25 44.1775V48.0525V44.1775ZM147.25 44.1775H151.125H147.25ZM147.25 44.1775H143.375H147.25ZM140.792 37.7192C140.792 39.0894 140.247 40.4036 139.278 41.3725C138.309 42.3415 136.995 42.8858 135.625 42.8858C134.255 42.8858 132.941 42.3415 131.972 41.3725C131.003 40.4036 130.458 39.0894 130.458 37.7192C130.458 36.3489 131.003 35.0347 131.972 34.0658C132.941 33.0968 134.255 32.5525 135.625 32.5525C136.995 32.5525 138.309 33.0968 139.278 34.0658C140.247 35.0347 140.792 36.3489 140.792 37.7192V37.7192ZM127.875 54.5108C127.875 52.4554 128.692 50.4842 130.145 49.0307C131.598 47.5773 133.57 46.7608 135.625 46.7608C137.68 46.7608 139.652 47.5773 141.105 49.0307C142.558 50.4842 143.375 52.4554 143.375 54.5108V55.8025H127.875V54.5108Z" stroke="#C6BEA3" stroke-width="2" stroke-linecap="round" stroke-linejoin="round"/>
</svg>
