<svg width="118" height="142" viewBox="0 0 118 142" fill="none" xmlns="http://www.w3.org/2000/svg">
<path d="M59 80.6187C51.4062 80.6187 45.0781 86.9468 45.0781 94.5405C45.0781 101.122 49.6344 106.691 55.7094 107.956V119.853C55.7094 121.625 56.975 122.891 58.7469 122.891H59.2531C61.025 122.891 62.2906 121.625 62.2906 119.853V107.956C68.3656 106.437 72.9219 100.869 72.9219 94.5405C72.9219 86.9468 66.5938 80.6187 59 80.6187V80.6187ZM59 101.881C54.95 101.881 51.6594 98.5905 51.6594 94.5405C51.6594 90.4905 54.95 87.1999 59 87.1999C63.05 87.1999 66.3406 90.4905 66.3406 94.5405C66.3406 98.5905 63.05 101.881 59 101.881Z" fill="#D36412"/>
<path d="M101.525 60.8751H101.019V42.1438C101.019 19.1094 82.2875 0.378174 59.2531 0.378174C36.2187 0.378174 17.4875 19.1094 17.4875 42.1438V60.8751H16.7281C7.86875 60.8751 0.78125 67.9626 0.78125 76.5688V126.181C0.78125 134.788 7.86875 141.875 16.475 141.875H101.525C110.131 141.875 117.219 134.788 117.219 126.181V76.5688C117.219 67.9626 110.131 60.8751 101.525 60.8751V60.8751ZM24.8281 42.1438C24.8281 23.1594 40.2687 7.97193 59 7.97193C77.7313 7.97193 93.1719 23.4126 93.1719 42.1438V60.8751H24.8281V42.1438V42.1438ZM109.625 126.181C109.625 130.738 106.081 134.281 101.525 134.281H16.475C11.9187 134.281 8.375 130.738 8.375 126.181V76.5688C8.375 72.0126 11.9187 68.4688 16.475 68.4688H101.525C106.081 68.4688 109.625 72.0126 109.625 76.5688V126.181V126.181Z" fill="#D36412"/>
</svg>
