<svg width="101" height="137" viewBox="0 0 101 137" fill="none" xmlns="http://www.w3.org/2000/svg">
<path d="M44.5096 103.05L44.8626 102.696L44.5096 103.05C45.0916 103.63 45.8808 103.957 46.7042 103.957H46.7043C47.5276 103.957 48.3174 103.631 48.9001 103.05L48.9002 103.05L65.724 86.2867L65.7243 86.2864C66.9371 85.076 66.9398 83.1162 65.7238 81.9062C64.5098 80.6983 62.5463 80.6979 61.3335 81.9065L46.7057 96.4831L39.6696 89.4701L39.6693 89.4698C38.4556 88.2622 36.492 88.2596 35.2787 89.4704C34.0656 90.6811 34.0652 92.6407 35.279 93.8502L44.5096 103.05ZM19.2375 136.5H81.764C92.0947 136.5 100.5 128.123 100.5 117.826V67.1304C100.5 57.2242 92.7225 49.0981 82.9353 48.4941V32.8229C82.9353 14.9982 68.3838 0.5 50.5008 0.5C32.6177 0.5 18.0662 14.9982 18.0662 32.8229V38.6825C18.0662 40.3948 19.4591 41.7785 21.1713 41.7785C22.8835 41.7785 24.2765 40.3948 24.2765 38.6825V32.8229C24.2765 18.4165 36.0395 6.69208 50.5008 6.69208C64.962 6.69208 76.725 18.4165 76.725 32.8229V48.4566H19.2375C8.90681 48.4566 0.5 56.8331 0.5 67.1304V117.826C0.5 128.124 8.90681 136.5 19.2375 136.5ZM6.7118 67.1304C6.7118 60.2514 12.3301 54.6502 19.2375 54.6502H81.764C88.6714 54.6502 94.2897 60.2514 94.2897 67.1304V117.826C94.2897 124.705 88.6714 130.306 81.764 130.306H19.2375C12.3301 130.306 6.7118 124.705 6.7118 117.826V67.1304ZM21.3427 92.4821C21.3427 108.503 34.4246 121.537 50.5008 121.537C66.5769 121.537 79.6588 108.503 79.6588 92.4821C79.6588 76.4548 66.577 63.4212 50.5008 63.4212C34.4245 63.4212 21.3427 76.4548 21.3427 92.4821ZM27.5529 92.4806C27.5529 79.8746 37.8463 69.6132 50.5008 69.6132C63.1552 69.6132 73.4486 79.8746 73.4486 92.4806C73.4486 105.085 63.1553 115.343 50.5008 115.343C37.8462 115.343 27.5529 105.085 27.5529 92.4806Z" fill="#D36412" stroke="#D36412"/>
</svg>
